# xmcd CD database file
#
# Track frame offsets:
#	183
#	9350
#	20458
#	31773
#	45015
#	55438
#	67815
#	78833
#	92820
#	104953
#
# Disc length: 1676 seconds
#
# Revision: 5
# Processed by: cddbd v1.4PL0 Copyright (c) Steve Scherf et al.
# Submitted via: CDex 1.50beta9
#
DISCID=6d068a0a
DTITLE=Winter, Johnny - The World Of Johnny Winter - Gangster of Love
DYEAR=1992
DGENRE=Blues
TTITLE0=Road Runner
TTITLE1=Gangster Of Love
TTITLE2=The Guy You Left Behind
TTITLE3=Five After Four AM
TTITLE4=That's What Love Does
TTITLE5=Leave My Woman Alone
TTITLE6=Oh My Darling
TTITLE7=Low Down Gal Of Mine
TTITLE8=Parchman Farm
TTITLE9=Goin' Down Slow
EXTD=YEAR: 1992
EXTT0=
EXTT1=
EXTT2=
EXTT3=
EXTT4=
EXTT5=
EXTT6=
EXTT7=
EXTT8=
EXTT9=
PLAYORDER=
